<?xml version="1.0" encoding="utf-8"?>
<!-- Generator: Adobe Illustrator 16.0.0, SVG Export Plug-In . SVG Version: 6.00 Build 0)  -->
<!DOCTYPE svg PUBLIC "-//W3C//DTD SVG 1.1//EN" "http://www.w3.org/Graphics/SVG/1.1/DTD/svg11.dtd" [
	<!ENTITY ns_flows "http://ns.adobe.com/Flows/1.0/">
	<!ENTITY ns_extend "http://ns.adobe.com/Extensibility/1.0/">
	<!ENTITY ns_ai "http://ns.adobe.com/AdobeIllustrator/10.0/">
	<!ENTITY ns_graphs "http://ns.adobe.com/Graphs/1.0/">
]>
<svg version="1.1" id="Layer_1" xmlns:x="&ns_extend;" xmlns:i="&ns_ai;" xmlns:graph="&ns_graphs;"
	 xmlns="http://www.w3.org/2000/svg" xmlns:xlink="http://www.w3.org/1999/xlink" xmlns:a="http://ns.adobe.com/AdobeSVGViewerExtensions/3.0/"
	 x="0px" y="0px" width="240px" height="37.278px" viewBox="0 0 240 37.278" style="enable-background:new 0 0 240 37.278;"
	 xml:space="preserve">
<g>
	<path style="fill:#979797;" d="M1.222,36.278V7.943h6.152c3.064,0,5.227,0.695,6.485,2.085c1.259,1.39,1.889,3.578,1.889,6.563
		v10.425c0,3.109-0.624,5.432-1.871,6.963c-1.248,1.533-3.319,2.299-6.212,2.299H1.222z M5.169,33.442h2.222
		c0.604,0,1.136-0.061,1.598-0.18C9.45,33.143,9.835,33,10.143,32.834c0.308-0.164,0.566-0.43,0.777-0.795
		c0.211-0.363,0.37-0.7,0.479-1.008s0.191-0.764,0.248-1.367c0.057-0.604,0.091-1.119,0.103-1.547
		c0.011-0.428,0.017-1.045,0.017-1.854v-9.212c0-0.684-0.012-1.259-0.034-1.726c-0.023-0.467-0.068-0.934-0.137-1.401
		c-0.068-0.467-0.171-0.849-0.308-1.145c-0.137-0.296-0.313-0.578-0.53-0.846c-0.217-0.267-0.484-0.472-0.803-0.615
		c-0.319-0.142-0.695-0.253-1.128-0.333c-0.433-0.08-0.94-0.12-1.521-0.12H5.169V33.442z"/>
	<path style="fill:#979797;" d="M19.422,36.278V16.044h3.743v2.888c0.695-1.162,1.41-1.977,2.145-2.444
		c0.734-0.467,1.512-0.701,2.333-0.701c0.228,0,0.433,0.012,0.615,0.034v4.136c-0.695-0.262-1.379-0.393-2.051-0.393
		c-0.627,0-1.177,0.14-1.649,0.419c-0.473,0.279-0.938,0.783-1.393,1.512v14.782H19.422z"/>
	<path style="fill:#979797;" d="M30.394,36.278v-4.152h3.76v4.152H30.394z"/>
	<path style="fill:#191919;" d="M43.929,36.278l6.05-28.334h3.811l6.05,28.334h-3.76l-1.299-7.143h-5.759l-1.35,7.143H43.929z
		 M49.535,26.315h4.734l-2.375-12.8L49.535,26.315z"/>
	<path style="fill:#191919;" d="M62.472,36.278V7.943h3.743v10.203c1.663-1.583,3.355-2.375,5.076-2.375
		c0.569,0,1.06,0.12,1.47,0.359s0.723,0.567,0.94,0.983c0.216,0.416,0.37,0.852,0.461,1.307c0.091,0.456,0.137,0.952,0.137,1.487
		v16.372h-3.743V21c0-0.774-0.111-1.35-0.333-1.726C70,18.898,69.581,18.71,68.966,18.71c-0.775,0-1.692,0.444-2.751,1.333v16.235
		H62.472z"/>
	<path style="fill:#191919;" d="M82.655,36.569c-1.641,0-2.965-0.516-3.973-1.547c-1.009-1.031-1.587-2.412-1.735-4.145l3.127-0.939
		c0.148,1.311,0.438,2.281,0.872,2.914C81.378,33.485,82,33.8,82.809,33.8c0.672,0,1.219-0.22,1.641-0.657
		c0.421-0.439,0.615-0.994,0.581-1.667c-0.057-1.003-0.604-1.948-1.641-2.837l-3.452-2.957c-0.82-0.694-1.447-1.42-1.88-2.178
		c-0.433-0.758-0.638-1.678-0.615-2.761c0.045-1.583,0.53-2.808,1.453-3.674c0.923-0.866,2.182-1.299,3.777-1.299
		c1.526,0,2.731,0.499,3.614,1.495c0.883,0.998,1.393,2.271,1.53,3.82l-2.529,0.94c-0.148-1.139-0.41-2.008-0.786-2.606
		c-0.376-0.598-0.94-0.897-1.692-0.897c-0.604,0-1.094,0.2-1.47,0.598c-0.376,0.399-0.559,0.889-0.547,1.47
		c0,0.775,0.336,1.458,1.008,2.051l3.589,3.282c0.9,0.785,1.604,1.601,2.111,2.443c0.506,0.844,0.76,1.852,0.76,3.025
		c0,1.686-0.504,2.971-1.512,3.854C85.739,36.127,84.375,36.569,82.655,36.569z"/>
	<path style="fill:#191919;" d="M94.669,36.569c-1.151,0-2.117-0.476-2.897-1.428c-0.78-0.95-1.17-2.041-1.17-3.271
		c0-0.957,0.156-1.826,0.47-2.607c0.313-0.779,0.646-1.409,1-1.888c0.353-0.479,0.965-0.977,1.837-1.495
		c0.871-0.519,1.546-0.886,2.025-1.103c0.479-0.216,1.316-0.569,2.512-1.06c0.068-0.034,0.12-0.057,0.154-0.068v-1.453
		c0-1.31-0.134-2.241-0.402-2.794s-0.812-0.829-1.632-0.829c-1.413,0-2.119,0.957-2.119,2.871v1.008l-3.708-0.137
		c0-0.205,0.011-0.456,0.034-0.752c0.114-2.017,0.678-3.486,1.692-4.409c1.014-0.923,2.466-1.384,4.358-1.384
		c1.948,0,3.355,0.533,4.221,1.598c0.865,1.066,1.299,2.669,1.299,4.811v9.245c0,1.527,0.113,3.145,0.342,4.854h-3.417
		c-0.239-1.127-0.405-2.124-0.496-2.99c-0.285,0.912-0.772,1.687-1.461,2.324C96.62,36.25,95.74,36.569,94.669,36.569z
		 M96.156,33.322c0.479,0,0.948-0.188,1.41-0.563c0.461-0.377,0.806-0.746,1.034-1.111v-5.725c-1.311,0.74-2.176,1.287-2.598,1.641
		c-1.094,0.889-1.641,1.942-1.641,3.161c0,0.82,0.154,1.458,0.461,1.914S95.575,33.322,96.156,33.322z"/>
	<path style="fill:#191919;" d="M105.947,36.278V16.044h3.743v2c1.595-1.515,3.241-2.273,4.938-2.273c0.57,0,1.063,0.12,1.479,0.359
		s0.732,0.567,0.949,0.983c0.216,0.416,0.369,0.852,0.461,1.307c0.091,0.456,0.137,0.952,0.137,1.487v16.372h-3.742V21
		c0-0.774-0.114-1.35-0.342-1.726c-0.229-0.376-0.65-0.564-1.266-0.564c-0.752,0-1.623,0.416-2.614,1.248v16.32H105.947z"/>
	<path style="fill:#00BCD4;" d="M128.079,36.278l6.05-28.334h3.811l6.051,28.334h-3.76l-1.299-7.143h-5.76l-1.35,7.143H128.079z
		 M133.685,26.315h4.733l-2.375-12.8L133.685,26.315z"/>
	<path style="fill:#00BCD4;" d="M146.622,36.278V7.943h3.742v10.203c1.664-1.583,3.355-2.375,5.076-2.375
		c0.569,0,1.06,0.12,1.47,0.359s0.724,0.567,0.94,0.983c0.216,0.416,0.369,0.852,0.461,1.307c0.091,0.456,0.137,0.952,0.137,1.487
		v16.372h-3.742V21c0-0.774-0.111-1.35-0.334-1.726c-0.222-0.376-0.641-0.564-1.256-0.564c-0.775,0-1.691,0.444-2.752,1.333v16.235
		H146.622z"/>
	<path style="fill:#00BCD4;" d="M162.122,36.278V16.044h3.453v1.914c1.367-1.515,2.956-2.273,4.768-2.273
		c1.709,0,2.803,0.854,3.281,2.563c1.412-1.709,3.094-2.563,5.041-2.563c1.061,0,1.923,0.388,2.59,1.162c0.666,0.775,1,1.96,1,3.555
		v15.876h-3.453V20.624c0-0.923-0.15-1.569-0.452-1.939c-0.303-0.37-0.732-0.55-1.29-0.539c-1.049,0-2.103,0.547-3.162,1.641
		c0.011,0.137,0.018,0.342,0.018,0.615v15.876h-3.436V20.624c0-0.923-0.151-1.569-0.453-1.939s-0.732-0.55-1.29-0.539
		c-1.037,0-2.091,0.553-3.161,1.658v16.474H162.122z"/>
	<path style="fill:#00BCD4;" d="M189.534,36.569c-1.15,0-2.116-0.476-2.896-1.428c-0.78-0.95-1.17-2.041-1.17-3.271
		c0-0.957,0.156-1.826,0.47-2.607c0.313-0.779,0.646-1.409,0.999-1.888c0.354-0.479,0.966-0.977,1.838-1.495
		c0.871-0.519,1.547-0.886,2.025-1.103c0.479-0.216,1.315-0.569,2.512-1.06c0.068-0.034,0.119-0.057,0.154-0.068v-1.453
		c0-1.31-0.135-2.241-0.402-2.794s-0.812-0.829-1.632-0.829c-1.413,0-2.119,0.957-2.119,2.871v1.008l-3.708-0.137
		c0-0.205,0.011-0.456,0.033-0.752c0.114-2.017,0.678-3.486,1.692-4.409c1.014-0.923,2.467-1.384,4.358-1.384
		c1.947,0,3.354,0.533,4.221,1.598c0.865,1.066,1.299,2.669,1.299,4.811v9.245c0,1.527,0.113,3.145,0.342,4.854h-3.418
		c-0.239-1.127-0.404-2.124-0.496-2.99c-0.284,0.912-0.771,1.687-1.461,2.324C191.485,36.25,190.605,36.569,189.534,36.569z
		 M191.021,33.322c0.479,0,0.948-0.188,1.41-0.563c0.461-0.377,0.806-0.746,1.034-1.111v-5.725c-1.311,0.74-2.177,1.287-2.598,1.641
		c-1.094,0.889-1.641,1.942-1.641,3.161c0,0.82,0.153,1.458,0.461,1.914S190.44,33.322,191.021,33.322z"/>
	<path style="fill:#00BCD4;" d="M205.514,36.569c-1.755,0.012-3.039-0.621-3.854-1.896c-0.815-1.276-1.222-3.39-1.222-6.341v-3.931
		c0-1.002,0.036-1.897,0.11-2.683s0.223-1.563,0.444-2.333c0.223-0.769,0.51-1.407,0.863-1.914c0.353-0.506,0.829-0.917,1.427-1.23
		c0.599-0.313,1.296-0.47,2.094-0.47c1.219,0,2.341,0.524,3.366,1.572V7.943h3.743v28.334h-3.743v-1.299
		C207.764,36.04,206.687,36.569,205.514,36.569z M206.454,33.612c0.729,0,1.492-0.25,2.289-0.752V19.599
		c-0.82-0.592-1.605-0.889-2.357-0.889c-1.471,0-2.205,1.407-2.205,4.221v5.726c0,0.638,0.014,1.179,0.043,1.623
		c0.028,0.444,0.088,0.892,0.18,1.342c0.091,0.45,0.216,0.809,0.375,1.076c0.16,0.268,0.382,0.487,0.667,0.658
		C205.729,33.527,206.066,33.612,206.454,33.612z"/>
</g>
<g>
</g>
<g>
</g>
<g>
</g>
<g>
</g>
<g>
</g>
<g>
</g>
<g>
</g>
<g>
</g>
<g>
</g>
<g>
</g>
<g>
</g>
<g>
</g>
<g>
</g>
<g>
</g>
<g>
</g>
</svg>
